<?xml version="1.0" encoding="iso-8859-1"?>
<!-- Generator: Adobe Illustrator 21.0.2, SVG Export Plug-In . SVG Version: 6.00 Build 0)  -->
<svg xmlns="http://www.w3.org/2000/svg" xmlns:xlink="http://www.w3.org/1999/xlink" version="1.1" x="0px" y="0px" viewBox="0 0 40 40" style="enable-background:new 0 0 40 40;" xml:space="preserve">
<g id="Layer_1">
	<g>
		<path style="fill:#98CCFD;" d="M31.5,21c2.481,0,4.5,2.019,4.5,4.5S33.981,30,31.5,30S27,27.981,27,25.5S29.019,21,31.5,21     M31.5,18c-4.142,0-7.5,3.358-7.5,7.5s3.358,7.5,7.5,7.5s7.5-3.358,7.5-7.5S35.642,18,31.5,18L31.5,18z"/>
		<path style="fill:#4788C7;" d="M31.5,19c3.584,0,6.5,2.916,6.5,6.5S35.084,32,31.5,32S25,29.084,25,25.5S27.916,19,31.5,19     M31.5,18c-4.142,0-7.5,3.358-7.5,7.5s3.358,7.5,7.5,7.5s7.5-3.358,7.5-7.5S35.642,18,31.5,18L31.5,18z"/>
	</g>
	<g>
		<path style="fill:#98CCFD;" d="M8.5,21c2.481,0,4.5,2.019,4.5,4.5S10.981,30,8.5,30S4,27.981,4,25.5S6.019,21,8.5,21 M8.5,18    C4.358,18,1,21.358,1,25.5S4.358,33,8.5,33s7.5-3.358,7.5-7.5S12.642,18,8.5,18L8.5,18z"/>
		<path style="fill:#4788C7;" d="M8.5,19c3.584,0,6.5,2.916,6.5,6.5S12.084,32,8.5,32S2,29.084,2,25.5S4.916,19,8.5,19 M8.5,18    C4.358,18,1,21.358,1,25.5S4.358,33,8.5,33s7.5-3.358,7.5-7.5S12.642,18,8.5,18L8.5,18z"/>
	</g>
	<path style="fill:none;stroke:#4788C7;stroke-linecap:round;stroke-miterlimit:10;" d="M27.281,7.5h3.75c0.828,0,1.5,0.672,1.5,1.5   v0c0,0.828-0.672,1.5-1.5,1.5H30.5"/>
	<polyline style="fill:none;stroke:#4788C7;stroke-linejoin:round;stroke-miterlimit:10;" points="31.5,25.5 24.5,7.5 28,7.5  "/>
	<polyline style="fill:none;stroke:#4788C7;stroke-miterlimit:10;" points="26.427,12.5 13.731,12.5 8.5,25.5  "/>
	<line style="fill:none;stroke:#4788C7;stroke-miterlimit:10;" x1="12.536" y1="8.804" x2="18" y2="25.5"/>
	<polyline style="fill:none;stroke:#4788C7;stroke-miterlimit:10;" points="8.5,25.5 18,25.5 27.228,14.514  "/>
	<g>
		<circle style="fill:#4788C7;" cx="8.5" cy="25.5" r="1"/>
	</g>
	<g>
		<circle style="fill:#4788C7;" cx="31.5" cy="25.5" r="1"/>
	</g>
	<path style="fill:#4788C7;" d="M15.49,9.911l-4.432,1.043C10.007,11.202,9,10.402,9,9.318V9.146C9,8.513,9.512,8,10.143,8H17v0   C17,8.912,16.375,9.703,15.49,9.911z"/>
</g>
<g id="Layer_2">
</g>
</svg>
